# xmcd CD database file
# Copyright (C) 1996 Ti Kan
#
# Track frame offsets:
# 	150
# 	1082
# 	16847
# 	17690
# 	33480
# 	34930
# 	50007
# 	50995
# 	69805
#
# Disc length: 944 seconds
#
# Revision: 1
# Processed by: cddbd v1.4b41PL1 Copyright (c) Steve Scherf et al.
# Submitted via: DiscPlay 3.4.1
#
DISCID=6a03ae09
DTITLE=Michelle Shocked - The Facts And The Fiction
DYEAR=1900
DGENRE=
TTITLE0=Jump Jim Crow - Intro
TTITLE1=Jump Jim Crow
TTITLE2=Contest Coming - Intro
TTITLE3=Contest Coming
TTITLE4=Shaking Hands - Intro
TTITLE5=Shaking Hands
TTITLE6=33 RPM Soul - Intro
TTITLE7=33 RPM Soul
TTITLE8=Outro
EXTD=
EXTT0=
EXTT1=
EXTT2=
EXTT3=
EXTT4=
EXTT5=
EXTT6=
EXTT7=
EXTT8=
PLAYORDER=
